<svg xmlns="http://www.w3.org/2000/svg" width="41.848" height="71.848" viewBox="0 0 41.848 71.848">
  <g id="noun_Ticket_956197" transform="translate(11.712 -4.2) rotate(90)">
    <g id="Group_39" data-name="Group 39" transform="translate(4.2 -30.136)">
      <path id="Path_89" data-name="Path 89" d="M26.584,29c-.023.054-.872,0-2.125,0s-1.3-.109-1.3-.136L22.2,29H4.2V70.7H22.279c.02,0,2.355-.029,2.292,0s2.059,0,2.091,0H76.048V29ZM74.326,68.7H71.352V31h2.974ZM28.071,31H69.787V68.7H28.071c-.018.046-22.342-.063-22.306-.1V31C5.751,31.007,28.1,31.034,28.071,31Z" transform="translate(-4.2 -28.864)"/>
      <rect id="Rectangle_34" data-name="Rectangle 34" width="2" height="3.3" transform="translate(19.29 9.636)"/>
      <rect id="Rectangle_35" data-name="Rectangle 35" width="2" height="3.3" transform="translate(19.29 22.736)"/>
      <rect id="Rectangle_36" data-name="Rectangle 36" width="2" height="3.3" transform="translate(19.29 29.236)"/>
      <rect id="Rectangle_37" data-name="Rectangle 37" width="2" height="3.3" transform="translate(19.29 16.136)"/>
      <rect id="Rectangle_38" data-name="Rectangle 38" width="19.3" height="2" transform="translate(31.479 19.606) rotate(90)"/>
      <rect id="Rectangle_42" data-name="Rectangle 42" width="19.3" height="2" transform="translate(26.812 19.606) rotate(90)"/>
      <path id="Path_90" data-name="Path 90" d="M16.1,33.9h-7v12h7Zm-2,10h-3v-8h3Z" transform="translate(-4.2 -28.864)"/>
      <rect id="Rectangle_43" data-name="Rectangle 43" width="2" height="16.4" transform="translate(10.1 19.936)"/>
      <rect id="Rectangle_44" data-name="Rectangle 44" width="2" height="16.4" transform="translate(5.1 19.936)"/>
      <rect id="Rectangle_45" data-name="Rectangle 45" width="2" height="11.4" transform="translate(13.935 25.036)"/>
      <rect id="Rectangle_46" data-name="Rectangle 46" width="19.3" height="2" transform="translate(36.146 19.892) rotate(90)"/>
      <rect id="Rectangle_47" data-name="Rectangle 47" width="6.55" height="2" transform="translate(31.479 10.931) rotate(90)"/>
      <rect id="Rectangle_48" data-name="Rectangle 48" width="6.55" height="2" transform="translate(26.812 10.931) rotate(90)"/>
      <rect id="Rectangle_49" data-name="Rectangle 49" width="6.55" height="2" transform="translate(36.146 11.217) rotate(90)"/>
      <rect id="Rectangle_50" data-name="Rectangle 50" width="6.55" height="2" transform="translate(31.479 2.656) rotate(90)"/>
      <rect id="Rectangle_51" data-name="Rectangle 51" width="6.55" height="2" transform="translate(26.812 2.943) rotate(90)"/>
      <rect id="Rectangle_52" data-name="Rectangle 52" width="6.55" height="2" transform="translate(36.146 2.656) rotate(90)"/>
      <rect id="Rectangle_53" data-name="Rectangle 53" width="19.3" height="2" transform="translate(43.691 19.936) rotate(90)"/>
      <rect id="Rectangle_54" data-name="Rectangle 54" width="26.3" height="2" transform="translate(47.58 12.936) rotate(90)"/>
      <rect id="Rectangle_55" data-name="Rectangle 55" width="26.3" height="2" transform="translate(51.469 12.936) rotate(90)"/>
    </g>
  </g>
</svg>
